<mxfile host="app.diagrams.net" agent="Mozilla/5.0 (Windows NT 10.0; Win64; x64) AppleWebKit/537.36 (KHTML, like Gecko) Chrome/131.0.0.0 Safari/537.36 OPR/116.0.0.0" version="26.0.13">
  <diagram name="Pagina-1" id="XCdvXgt2phlTUe6GwzUb">
    <mxGraphModel dx="1440" dy="813" grid="1" gridSize="10" guides="1" tooltips="1" connect="1" arrows="1" fold="1" page="1" pageScale="1" pageWidth="827" pageHeight="1169" math="0" shadow="0">
      <root>
        <mxCell id="0" />
        <mxCell id="1" parent="0" />
        <mxCell id="RwRVhQMN90nz8RfIQtrf-1" value="" style="whiteSpace=wrap;html=1;aspect=fixed;" vertex="1" parent="1">
          <mxGeometry x="240" y="54" width="530" height="530" as="geometry" />
        </mxCell>
        <mxCell id="RwRVhQMN90nz8RfIQtrf-2" value="" style="shape=sumEllipse;perimeter=ellipsePerimeter;whiteSpace=wrap;html=1;backgroundOutline=1;" vertex="1" parent="1">
          <mxGeometry x="280" y="145" width="170" height="170" as="geometry" />
        </mxCell>
        <mxCell id="RwRVhQMN90nz8RfIQtrf-3" value="Item" style="rounded=0;whiteSpace=wrap;html=1;" vertex="1" parent="1">
          <mxGeometry x="510" y="130" width="250" height="60" as="geometry" />
        </mxCell>
        <mxCell id="RwRVhQMN90nz8RfIQtrf-4" value="Item" style="rounded=0;whiteSpace=wrap;html=1;" vertex="1" parent="1">
          <mxGeometry x="510" y="200" width="250" height="60" as="geometry" />
        </mxCell>
        <mxCell id="RwRVhQMN90nz8RfIQtrf-5" value="Item" style="rounded=0;whiteSpace=wrap;html=1;" vertex="1" parent="1">
          <mxGeometry x="510" y="270" width="250" height="60" as="geometry" />
        </mxCell>
        <mxCell id="RwRVhQMN90nz8RfIQtrf-6" value="Item" style="rounded=0;whiteSpace=wrap;html=1;" vertex="1" parent="1">
          <mxGeometry x="510" y="340" width="250" height="60" as="geometry" />
        </mxCell>
        <mxCell id="RwRVhQMN90nz8RfIQtrf-7" value="Item" style="rounded=0;whiteSpace=wrap;html=1;" vertex="1" parent="1">
          <mxGeometry x="510" y="410" width="250" height="60" as="geometry" />
        </mxCell>
        <mxCell id="RwRVhQMN90nz8RfIQtrf-8" value="Item" style="rounded=0;whiteSpace=wrap;html=1;" vertex="1" parent="1">
          <mxGeometry x="510" y="480" width="250" height="60" as="geometry" />
        </mxCell>
        <mxCell id="RwRVhQMN90nz8RfIQtrf-9" value="Cookies:" style="text;html=1;align=center;verticalAlign=middle;whiteSpace=wrap;rounded=0;" vertex="1" parent="1">
          <mxGeometry x="310" y="80" width="90" height="60" as="geometry" />
        </mxCell>
      </root>
    </mxGraphModel>
  </diagram>
</mxfile>
